<svg xmlns="http://www.w3.org/2000/svg" class="hammer" style="height: 100%; width: 100%; touch-action: none;" width="100" height="100" viewBox="-50 -50 100 100"><g transform="rotate(13,0,0)"><path stroke-linecap="round" stroke-linejoin="round" d="M15.603,-3.737 L12.661,-0.682 L12.075,-4.106 Z" fill="#ababab"></path><path stroke-linecap="round" stroke-linejoin="round" d="M15.603,-19.54 L15.603,-3.737 L12.075,-4.106 L12.075,-19.909 Z" fill="#949494"></path><path stroke-linecap="round" stroke-linejoin="round" d="M12.075,-19.909 L12.075,-4.106 L-16.367,-3.221 L-16.367,-19.024 Z" fill="#757575"></path><path stroke-linecap="round" stroke-linejoin="round" d="M-4.547,-17.872 C-4.547,-17.872 0.795,-16.984 0.795,-16.984 C0.882,-16.969 0.947,-16.896 0.953,-16.806 C0.953,-16.806 1.281,-11.228 1.281,-11.228 C1.289,-11.096 1.169,-10.99 1.041,-11.016 C1.041,-11.016 -0.446,-11.316 -0.446,-11.316 C-0.585,-11.344 -0.711,-11.216 -0.682,-11.076 C-0.682,-11.076 -0.24,-8.911 -0.24,-8.911 C-0.211,-8.765 -0.347,-8.636 -0.49,-8.675 C-0.49,-8.675 -1.408,-8.927 -1.408,-8.927 C-1.551,-8.966 -1.687,-8.836 -1.657,-8.69 C-1.657,-8.69 -0.955,-5.29 -0.955,-5.29 C-0.911,-5.077 -1.194,-4.951 -1.312,-5.131 C-1.312,-5.131 -1.391,-5.251 -1.391,-5.251 C-1.391,-5.251 -5.744,-13.864 -5.744,-13.864 C-5.816,-14.008 -5.691,-14.179 -5.531,-14.153 C-5.531,-14.153 -4,-13.903 -4,-13.903 C-3.856,-13.88 -3.734,-14.018 -3.774,-14.159 C-3.774,-14.159 -4.774,-17.616 -4.774,-17.616 C-4.814,-17.757 -4.691,-17.896 -4.547,-17.872 Z" stroke="#fbbf28" stroke-width="0.6" fill="#fbbf28"></path><path stroke-linecap="round" stroke-linejoin="round" d="M12.075,-4.106 L12.661,-0.682 L-15.782,0.203 L-16.367,-3.221 Z" fill="#949494"></path><path stroke-linecap="round" stroke-linejoin="round" d="M15.603,-19.54 L12.661,-22.411 L12.075,-19.909 Z" fill="#ababab"></path><path stroke-linecap="round" stroke-linejoin="round" d="M-15.782,-21.526 L-16.367,-19.024 L12.075,-19.909 L12.661,-22.411 Z" fill="#949494"></path><path stroke-linecap="round" stroke-linejoin="round" d="M-18.724,-2.669 L-15.782,0.203 L-16.367,-3.221 Z" fill="#ababab"></path><path stroke-linecap="round" stroke-linejoin="round" d="M-18.724,-18.472 L-18.724,-2.669 L-16.367,-3.221 L-16.367,-19.024 Z" fill="#949494"></path><path d="M0,22.914 L0,25.877 " stroke="#828282" stroke-width="9.6"></path><path stroke-linecap="round" stroke-linejoin="round" d="M0.839,26.537 C-1.533,26.611 -3.746,26.38 -4.217,26.009 C-4.689,25.638 -3.211,25.292 -0.839,25.218 C1.533,25.144 3.746,25.375 4.217,25.746 C4.689,26.117 3.211,26.463 0.839,26.537 " stroke="#828282" stroke-width="1" fill="#828282"></path><path stroke-linecap="round" stroke-linejoin="round" d="M0.839,23.574 C3.211,23.5 4.689,23.154 4.217,22.783 C3.746,22.412 1.533,22.181 -0.839,22.255 C-3.211,22.328 -4.689,22.674 -4.217,23.046 C-3.746,23.417 -1.533,23.648 0.839,23.574 " stroke="#828282" stroke-width="1" fill="#828282"></path><path d="M0,21.186 L0,22.174 " stroke="#7a7a7a" stroke-width="9.1"></path><path stroke-linecap="round" stroke-linejoin="round" d="M0.839,22.833 C-1.533,22.907 -3.746,22.676 -4.217,22.305 C-4.689,21.934 -3.211,21.588 -0.839,21.514 C1.533,21.44 3.746,21.671 4.217,22.042 C4.689,22.413 3.211,22.76 0.839,22.833 " stroke="#7a7a7a" stroke-width="0.5" fill="#7a7a7a"></path><path stroke-linecap="round" stroke-linejoin="round" d="M0.839,21.846 C3.211,21.772 4.689,21.426 4.217,21.055 C3.746,20.684 1.533,20.452 -0.839,20.526 C-3.211,20.6 -4.689,20.946 -4.217,21.317 C-3.746,21.688 -1.533,21.919 0.839,21.846 " stroke="#7a7a7a" stroke-width="0.5" fill="#7a7a7a"></path><path stroke-linecap="round" stroke-linejoin="round" d="M15.603,-3.737 L18.724,-1.282 L15.782,1.773 L12.661,-0.682 Z" fill="#949494"></path><path stroke-linecap="round" stroke-linejoin="round" d="M-18.724,-18.472 L-15.782,-21.526 L-16.367,-19.024 Z" fill="#ababab"></path><path d="M0,4.445 L0,20.939 " stroke="#91512b" stroke-width="8.6"></path><path stroke-linecap="round" stroke-linejoin="round" d="M0.839,21.599 C-1.533,21.673 -3.746,21.441 -4.217,21.07 C-4.689,20.699 -3.211,20.353 -0.839,20.279 C1.533,20.205 3.746,20.437 4.217,20.808 C4.689,21.179 3.211,21.525 0.839,21.599 " fill="#91512b"></path><path stroke-linecap="round" stroke-linejoin="round" d="M0.839,5.104 C3.211,5.031 4.689,4.684 4.217,4.313 C3.746,3.942 1.533,3.711 -0.839,3.785 C-3.211,3.859 -4.689,4.205 -4.217,4.576 C-3.746,4.947 -1.533,5.178 0.839,5.104 " fill="#91512b"></path><path stroke-linecap="round" stroke-linejoin="round" d="M15.603,-3.737 L18.724,-1.282 L18.724,-17.085 L15.603,-19.54 Z" fill="#757575"></path><path d="M0,1.235 L0,4.198 " stroke="#6e6e6e" stroke-width="9.1"></path><path stroke-linecap="round" stroke-linejoin="round" d="M0.839,4.857 C-1.533,4.931 -3.746,4.7 -4.217,4.329 C-4.689,3.958 -3.211,3.612 -0.839,3.538 C1.533,3.464 3.746,3.695 4.217,4.066 C4.689,4.438 3.211,4.784 0.839,4.857 " stroke="#6e6e6e" stroke-width="0.5" fill="#6e6e6e"></path><path stroke-linecap="round" stroke-linejoin="round" d="M0.839,1.894 C3.211,1.821 4.689,1.474 4.217,1.103 C3.746,0.732 1.533,0.501 -0.839,0.575 C-3.211,0.649 -4.689,0.995 -4.217,1.366 C-3.746,1.737 -1.533,1.968 0.839,1.894 " stroke="#6e6e6e" stroke-width="0.5" fill="#6e6e6e"></path><path stroke-linecap="round" stroke-linejoin="round" d="M12.661,-0.682 L15.782,1.773 L-12.661,2.658 L-15.782,0.203 Z" fill="#757575"></path><path stroke-linecap="round" stroke-linejoin="round" d="M15.603,-19.54 L18.724,-17.085 L15.782,-19.957 L12.661,-22.411 Z" fill="#949494"></path><path stroke-linecap="round" stroke-linejoin="round" d="M-15.603,-0.214 L-18.724,-2.669 L-15.782,0.203 L-12.661,2.658 Z" fill="#949494"></path><path stroke-linecap="round" stroke-linejoin="round" d="M12.661,-22.411 L15.782,-19.957 L-12.661,-19.072 L-15.782,-21.526 Z" fill="#757575"></path><path stroke-linecap="round" stroke-linejoin="round" d="M-15.603,-0.214 L-18.724,-2.669 L-18.724,-18.472 L-15.603,-16.017 Z" fill="#757575"></path><path stroke-linecap="round" stroke-linejoin="round" d="M18.724,-1.282 L15.782,1.773 L16.367,-0.73 Z" fill="#ababab"></path><path stroke-linecap="round" stroke-linejoin="round" d="M-15.603,-16.017 L-18.724,-18.472 L-15.782,-21.526 L-12.661,-19.072 Z" fill="#949494"></path><path stroke-linecap="round" stroke-linejoin="round" d="M18.724,-17.085 L18.724,-1.282 L16.367,-0.73 L16.367,-16.533 Z" fill="#949494"></path><path stroke-linecap="round" stroke-linejoin="round" d="M18.724,-17.085 L15.782,-19.957 L16.367,-16.533 Z" fill="#ababab"></path><path stroke-linecap="round" stroke-linejoin="round" d="M-12.075,0.155 L-12.661,2.658 L15.782,1.773 L16.367,-0.73 Z" fill="#949494"></path><path stroke-linecap="round" stroke-linejoin="round" d="M-15.603,-0.214 L-12.661,2.658 L-12.075,0.155 Z" fill="#ababab"></path><path stroke-linecap="round" stroke-linejoin="round" d="M15.782,-19.957 L16.367,-16.533 L-12.075,-15.648 L-12.661,-19.072 Z" fill="#949494"></path><path stroke-linecap="round" stroke-linejoin="round" d="M-12.075,-15.648 L-12.075,0.155 L16.367,-0.73 L16.367,-16.533 Z" fill="#757575"></path><path stroke-linecap="round" stroke-linejoin="round" d="M4.547,-14.598 C4.547,-14.598 -0.795,-13.377 -0.795,-13.377 C-0.882,-13.357 -0.947,-13.28 -0.953,-13.19 C-0.953,-13.19 -1.281,-7.591 -1.281,-7.591 C-1.289,-7.459 -1.169,-7.361 -1.041,-7.395 C-1.041,-7.395 0.446,-7.786 0.446,-7.786 C0.585,-7.823 0.711,-7.704 0.682,-7.562 C0.682,-7.562 0.24,-5.369 0.24,-5.369 C0.211,-5.221 0.347,-5.1 0.49,-5.148 C0.49,-5.148 1.408,-5.458 1.408,-5.458 C1.551,-5.506 1.687,-5.384 1.657,-5.237 C1.657,-5.237 0.955,-1.792 0.955,-1.792 C0.911,-1.577 1.194,-1.469 1.312,-1.656 C1.312,-1.656 1.391,-1.781 1.391,-1.781 C1.391,-1.781 5.744,-10.665 5.744,-10.665 C5.816,-10.813 5.691,-10.976 5.531,-10.94 C5.531,-10.94 4,-10.595 4,-10.595 C3.856,-10.563 3.734,-10.694 3.774,-10.837 C3.774,-10.837 4.774,-14.356 4.774,-14.356 C4.814,-14.499 4.691,-14.631 4.547,-14.598 Z" stroke="#fbbf28" stroke-width="0.6" fill="#fbbf28"></path><path stroke-linecap="round" stroke-linejoin="round" d="M-15.603,-16.017 L-15.603,-0.214 L-12.075,0.155 L-12.075,-15.648 Z" fill="#949494"></path><path stroke-linecap="round" stroke-linejoin="round" d="M-15.603,-16.017 L-12.661,-19.072 L-12.075,-15.648 Z" fill="#ababab"></path></g></svg>